<svg width="64" height="11" viewBox="0 0 64 11" fill="none" xmlns="http://www.w3.org/2000/svg">
<path d="M5.7024 1.42259C5.76404 1.23287 6.03245 1.23287 6.0941 1.42259L6.96163 4.09259C6.9892 4.17743 7.06827 4.23488 7.15748 4.23488H9.96488C10.1644 4.23488 10.2473 4.49015 10.0859 4.60741L7.81469 6.25756C7.74252 6.31 7.71232 6.40295 7.73988 6.4878L8.60742 9.15779C8.66906 9.34752 8.45191 9.50528 8.29052 9.38803L6.01929 7.73788C5.94712 7.68544 5.84938 7.68544 5.77721 7.73788L3.50597 9.38803C3.34458 9.50528 3.12743 9.34752 3.18908 9.15779L4.05661 6.4878C4.08418 6.40295 4.05398 6.31 3.9818 6.25756L1.71057 4.60741C1.54918 4.49015 1.63212 4.23488 1.83161 4.23488H4.63901C4.72823 4.23488 4.80729 4.17743 4.83486 4.09259L5.7024 1.42259Z" fill="#F1CC4A"/>
<path d="M32.0615 1.42265C32.1231 1.23293 32.3915 1.23293 32.4532 1.42265L33.3207 4.09265C33.3483 4.1775 33.4273 4.23494 33.5165 4.23494H36.3239C36.5234 4.23494 36.6064 4.49022 36.445 4.60747L34.1737 6.25762C34.1016 6.31006 34.0714 6.40301 34.0989 6.48786L34.9665 9.15785C35.0281 9.34758 34.811 9.50535 34.6496 9.38809L32.3783 7.73794C32.3062 7.6855 32.2084 7.6855 32.1363 7.73794L29.865 9.38809C29.7036 9.50535 29.4865 9.34758 29.5481 9.15785L30.4157 6.48786C30.4432 6.40301 30.413 6.31006 30.3409 6.25762L28.0696 4.60747C27.9082 4.49022 27.9912 4.23494 28.1907 4.23494H30.9981C31.0873 4.23494 31.1663 4.1775 31.1939 4.09265L32.0615 1.42265Z" fill="#F1CC4A"/>
<path d="M18.8819 1.42265C18.9435 1.23293 19.212 1.23293 19.2736 1.42265L20.1411 4.09265C20.1687 4.1775 20.2478 4.23494 20.337 4.23494H23.1444C23.3439 4.23494 23.4268 4.49022 23.2654 4.60747L20.9942 6.25762C20.922 6.31006 20.8918 6.40301 20.9194 6.48786L21.7869 9.15785C21.8486 9.34758 21.6314 9.50535 21.47 9.38809L19.1988 7.73794C19.1266 7.6855 19.0289 7.6855 18.9567 7.73794L16.6855 9.38809C16.5241 9.50535 16.3069 9.34758 16.3686 9.15785L17.2361 6.48786C17.2637 6.40301 17.2335 6.31006 17.1613 6.25762L14.8901 4.60747C14.7287 4.49022 14.8116 4.23494 15.0111 4.23494H17.8185C17.9077 4.23494 17.9868 4.1775 18.0144 4.09265L18.8819 1.42265Z" fill="#F1CC4A"/>
<path d="M45.2409 1.42265C45.3026 1.23293 45.571 1.23293 45.6326 1.42265L46.5002 4.09265C46.5277 4.1775 46.6068 4.23494 46.696 4.23494H49.5034C49.7029 4.23494 49.7859 4.49022 49.6245 4.60747L47.3532 6.25762C47.2811 6.31006 47.2509 6.40301 47.2784 6.48786L48.146 9.15785C48.2076 9.34758 47.9905 9.50535 47.8291 9.38809L45.5578 7.73794C45.4857 7.6855 45.3879 7.6855 45.3157 7.73794L43.0445 9.38809C42.8831 9.50535 42.666 9.34758 42.7276 9.15785L43.5952 6.48786C43.6227 6.40301 43.5925 6.31006 43.5203 6.25762L41.2491 4.60747C41.0877 4.49022 41.1707 4.23494 41.3702 4.23494H44.1776C44.2668 4.23494 44.3458 4.1775 44.3734 4.09265L45.2409 1.42265Z" fill="#F1CC4A"/>
<path d="M58.4204 1.42265C58.4821 1.23293 58.7505 1.23293 58.8121 1.42265L59.6797 4.09265C59.7072 4.1775 59.7863 4.23494 59.8755 4.23494H62.6829C62.8824 4.23494 62.9653 4.49022 62.8039 4.60747L60.5327 6.25762C60.4605 6.31006 60.4303 6.40301 60.4579 6.48786L61.3254 9.15785C61.3871 9.34758 61.1699 9.50535 61.0085 9.38809L58.7373 7.73794C58.6651 7.6855 58.5674 7.6855 58.4952 7.73794L56.224 9.38809C56.0626 9.50535 55.8455 9.34758 55.9071 9.15785L56.7746 6.48786C56.8022 6.40301 56.772 6.31006 56.6998 6.25762L54.4286 4.60747C54.2672 4.49022 54.3501 4.23494 54.5496 4.23494H57.357C57.4462 4.23494 57.5253 4.1775 57.5529 4.09265L58.4204 1.42265Z" fill="#F1CC4A"/>
</svg>
